<svg width="1600" height="960" viewBox="0 0 1600 960" fill="none" xmlns="http://www.w3.org/2000/svg">
<g clip-path="url(#clip0_3051_6769)">
<rect width="1600" height="960" fill="black"/>
<rect x="1323.29" y="914.301" width="749.149" height="494.295" stroke="#D6302F" stroke-width="2"/>
<rect x="1323.29" y="914.301" width="78.4802" height="494.295" stroke="#D6302F" stroke-width="2"/>
<rect x="1342.07" y="933.08" width="40.9228" height="40.9228" rx="3" stroke="#D6302F" stroke-width="2"/>
<rect x="1430.59" y="941.128" width="234.075" height="24.8267" rx="3" stroke="#D6302F" stroke-width="2"/>
<rect x="1323.29" y="-213.763" width="749.149" height="494.295" stroke="#D6302F" stroke-width="2"/>
<rect x="1323.29" y="-213.763" width="78.4802" height="494.295" stroke="#D6302F" stroke-width="2"/>
<circle cx="1362.53" cy="6.55729" r="12.4134" stroke="#D6302F" stroke-width="2"/>
<circle cx="1362.53" cy="52.1628" r="12.4134" stroke="#D6302F" stroke-width="2"/>
<circle cx="1362.53" cy="97.7684" r="12.4134" stroke="#D6302F" stroke-width="2"/>
<rect x="1470.83" y="42.4321" width="264.926" height="19.4614" rx="3" stroke="#D6302F" stroke-width="2"/>
<rect x="1470.83" y="-5.85608" width="132.134" height="24.8267" rx="3" stroke="#D6302F" stroke-width="2"/>
<rect x="1430.59" y="-43.4135" width="615.015" height="301.142" rx="3" stroke="#D6302F" stroke-width="2"/>
<rect x="1350.12" y="232.902" width="24.8267" height="24.8267" rx="3" stroke="#D6302F" stroke-width="2"/>
<path d="M1469.83 101.792H1989.6" stroke="#D6302F" stroke-width="2"/>
<path d="M1469.83 128.619H1989.6" stroke="#D6302F" stroke-width="2"/>
<path d="M1469.83 155.446H1895.04" stroke="#D6302F" stroke-width="2"/>
<rect x="183.151" y="914.301" width="749.149" height="494.295" stroke="#D6302F" stroke-width="2"/>
<rect x="183.151" y="914.301" width="78.4802" height="494.295" stroke="#D6302F" stroke-width="2"/>
<rect x="201.931" y="933.08" width="40.9228" height="40.9228" rx="3" stroke="#D6302F" stroke-width="2"/>
<rect x="290.458" y="941.128" width="234.075" height="24.8267" rx="3" stroke="#D6302F" stroke-width="2"/>
<rect x="183.151" y="-213.763" width="749.149" height="494.295" stroke="#D6302F" stroke-width="2"/>
<rect x="183.151" y="-213.763" width="78.4802" height="494.295" stroke="#D6302F" stroke-width="2"/>
<circle cx="222.392" cy="6.55729" r="12.4134" stroke="#D6302F" stroke-width="2"/>
<circle cx="222.392" cy="52.1628" r="12.4134" stroke="#D6302F" stroke-width="2"/>
<circle cx="222.392" cy="97.7684" r="12.4134" stroke="#D6302F" stroke-width="2"/>
<rect x="330.698" y="42.4321" width="264.926" height="19.4614" rx="3" stroke="#D6302F" stroke-width="2"/>
<rect x="330.698" y="-5.85608" width="132.134" height="24.8267" rx="3" stroke="#D6302F" stroke-width="2"/>
<rect x="733.1" y="195.345" width="132.134" height="24.8267" rx="3" fill="#D6302F" fill-opacity="0.5" stroke="#D6302F" stroke-width="2"/>
<rect x="585.553" y="195.345" width="132.134" height="24.8267" rx="3" stroke="#D6302F" stroke-width="2"/>
<rect x="290.458" y="-43.4135" width="615.015" height="301.142" rx="3" stroke="#D6302F" stroke-width="2"/>
<rect x="209.979" y="232.902" width="24.8267" height="24.8267" rx="3" stroke="#D6302F" stroke-width="2"/>
<path d="M329.698 101.792H849.466" stroke="#D6302F" stroke-width="2"/>
<path d="M329.698 128.619H849.466" stroke="#D6302F" stroke-width="2"/>
<path d="M329.698 155.446H754.902" stroke="#D6302F" stroke-width="2"/>
<rect x="1001.37" y="350.94" width="749.149" height="494.295" stroke="#D6302F" stroke-width="2"/>
<rect x="1001.37" y="350.94" width="78.4802" height="494.295" stroke="#D6302F" stroke-width="2"/>
<rect x="1020.15" y="369.718" width="40.9228" height="40.9228" rx="3" stroke="#D6302F" stroke-width="2"/>
<circle cx="1040.61" cy="480.049" r="12.4134" stroke="#D6302F" stroke-width="2"/>
<circle cx="1040.61" cy="525.655" r="12.4134" stroke="#D6302F" stroke-width="2"/>
<circle cx="1040.61" cy="571.26" r="12.4134" stroke="#D6302F" stroke-width="2"/>
<circle cx="1040.61" cy="616.866" r="12.4134" stroke="#D6302F" stroke-width="2"/>
<circle cx="1040.61" cy="662.471" r="12.4134" stroke="#D6302F" stroke-width="2"/>
<rect x="1108.67" y="377.766" width="234.075" height="24.8267" rx="3" stroke="#D6302F" stroke-width="2"/>
<rect x="1108.67" y="418.007" width="264.926" height="16.7787" rx="3" stroke="#D6302F" stroke-width="2"/>
<rect x="1148.91" y="607.135" width="264.926" height="19.4614" rx="3" stroke="#D6302F" stroke-width="2"/>
<rect x="1148.91" y="558.847" width="132.134" height="24.8267" rx="3" stroke="#D6302F" stroke-width="2"/>
<rect x="1551.32" y="760.047" width="132.134" height="24.8267" rx="3" fill="#D6302F" fill-opacity="0.5" stroke="#D6302F" stroke-width="2"/>
<rect x="1403.77" y="760.047" width="132.134" height="24.8267" rx="3" stroke="#D6302F" stroke-width="2"/>
<rect x="1108.67" y="521.29" width="615.015" height="301.142" rx="3" stroke="#D6302F" stroke-width="2"/>
<path d="M1111.67 467.636H1157.33C1158.98 467.636 1160.33 468.979 1160.33 470.636V492.463H1111.67C1110.02 492.463 1108.67 491.12 1108.67 489.463V470.636C1108.67 468.979 1110.02 467.636 1111.67 467.636Z" stroke="#D6302F" stroke-width="2"/>
<path d="M1184.11 467.636H1229.76C1231.42 467.636 1232.76 468.979 1232.76 470.636V492.463H1181.11V470.636C1181.11 468.979 1182.45 467.636 1184.11 467.636Z" stroke="#D6302F" stroke-width="2"/>
<path d="M1256.54 467.636H1302.19C1303.85 467.636 1305.19 468.979 1305.19 470.636V492.463H1253.54V470.636C1253.54 468.979 1254.88 467.636 1256.54 467.636Z" stroke="#D6302F" stroke-width="2"/>
<path d="M1328.97 467.636H1374.62C1376.28 467.636 1377.62 468.979 1377.62 470.636V489.463C1377.62 491.12 1376.28 492.463 1374.62 492.463H1325.97V470.636C1325.97 468.979 1327.31 467.636 1328.97 467.636Z" stroke="#D6302F" stroke-width="2"/>
<path d="M1116.39 492.792H1366.55" stroke="#D6302F" stroke-width="2"/>
<rect x="1028.19" y="797.605" width="24.8267" height="24.8267" rx="3" stroke="#D6302F" stroke-width="2"/>
<path d="M1147.91 666.495H1667.68" stroke="#D6302F" stroke-width="2"/>
<path d="M1147.91 693.322H1667.68" stroke="#D6302F" stroke-width="2"/>
<path d="M1147.91 720.149H1573.12" stroke="#D6302F" stroke-width="2"/>
<rect x="-138.77" y="350.94" width="749.149" height="494.295" stroke="#D6302F" stroke-width="2"/>
<rect x="-31.4629" y="377.766" width="234.075" height="24.8267" rx="3" stroke="#D6302F" stroke-width="2"/>
<rect x="-31.4629" y="418.006" width="264.926" height="16.7787" rx="3" stroke="#D6302F" stroke-width="2"/>
<rect x="8.77734" y="607.135" width="264.926" height="19.4614" rx="3" stroke="#D6302F" stroke-width="2"/>
<rect x="8.77734" y="558.847" width="132.134" height="24.8267" rx="3" stroke="#D6302F" stroke-width="2"/>
<rect x="411.179" y="760.047" width="132.134" height="24.8267" rx="3" fill="#D6302F" fill-opacity="0.5" stroke="#D6302F" stroke-width="2"/>
<rect x="263.632" y="760.047" width="132.134" height="24.8267" rx="3" stroke="#D6302F" stroke-width="2"/>
<rect x="-31.4629" y="521.29" width="615.015" height="301.142" rx="3" stroke="#D6302F" stroke-width="2"/>
<path d="M-28.4629 467.636H17.1906C18.8475 467.636 20.1906 468.979 20.1906 470.636V492.463H-28.4629C-30.1197 492.463 -31.4629 491.12 -31.4629 489.463V470.636C-31.4629 468.979 -30.1197 467.636 -28.4629 467.636Z" stroke="#D6302F" stroke-width="2"/>
<path d="M43.9697 467.636H89.6232C91.2801 467.636 92.6232 468.979 92.6232 470.636V492.463H40.9697V470.636C40.9697 468.979 42.3129 467.636 43.9697 467.636Z" stroke="#D6302F" stroke-width="2"/>
<path d="M116.401 467.636H162.055C163.712 467.636 165.055 468.979 165.055 470.636V492.463H113.401V470.636C113.401 468.979 114.745 467.636 116.401 467.636Z" stroke="#D6302F" stroke-width="2"/>
<path d="M188.834 467.636H234.487C236.144 467.636 237.487 468.979 237.487 470.636V489.463C237.487 491.12 236.144 492.463 234.487 492.463H185.834V470.636C185.834 468.979 187.177 467.636 188.834 467.636Z" stroke="#D6302F" stroke-width="2"/>
<path d="M-23.7441 492.792H226.415" stroke="#D6302F" stroke-width="2"/>
<path d="M7.77734 666.495H527.546" stroke="#D6302F" stroke-width="2"/>
<path d="M7.77734 693.322H527.546" stroke="#D6302F" stroke-width="2"/>
<path d="M7.77734 720.149H432.981" stroke="#D6302F" stroke-width="2"/>
<path d="M1001.71 914.643L1253.88 1145.35" stroke="#D6302F" stroke-width="2"/>
<path d="M1253.88 914.643L1001.71 1145.35" stroke="#D6302F" stroke-width="2"/>
<circle cx="1214.98" cy="964.272" r="12.4134" fill="#19191B" stroke="#D6302F" stroke-width="2"/>
<rect x="1001.37" y="914.301" width="252.854" height="494.295" stroke="#D6302F" stroke-width="2"/>
<rect x="1028.19" y="951.859" width="24.8267" height="24.8267" rx="3" fill="#19191B" stroke="#D6302F" stroke-width="2"/>
<rect x="1028.19" y="46.4561" width="132.134" height="24.8267" rx="3" stroke="#D6302F" stroke-width="2"/>
<rect x="1028.19" y="89.3789" width="199.201" height="19.4614" rx="3" stroke="#D6302F" stroke-width="2"/>
<path d="M1027.19 142.032H1228.39" stroke="#D6302F" stroke-width="2"/>
<path d="M1027.19 142.032H1228.39" stroke="#D6302F" stroke-width="2"/>
<path d="M1001.71 -213.422L1253.88 17.288" stroke="#D6302F" stroke-width="2"/>
<path d="M1253.88 -213.422L1001.71 17.288" stroke="#D6302F" stroke-width="2"/>
<path d="M1027.19 168.859H1228.39" stroke="#D6302F" stroke-width="2"/>
<path d="M1027.19 195.686H1192.18" stroke="#D6302F" stroke-width="2"/>
<rect x="1028.19" y="228.878" width="199.201" height="24.8267" rx="3" fill="#D6302F" fill-opacity="0.5" stroke="#D6302F" stroke-width="2"/>
<rect x="1001.37" y="-213.763" width="252.854" height="494.295" stroke="#D6302F" stroke-width="2"/>
<rect x="1001.37" y="16.9467" width="252.854" height="263.585" stroke="#D6302F" stroke-width="2"/>
<path d="M-138.428 915.984L113.744 1146.69" stroke="#D6302F" stroke-width="2"/>
<path d="M113.743 915.984L-138.428 1146.69" stroke="#D6302F" stroke-width="2"/>
<circle cx="74.844" cy="965.614" r="12.4134" fill="#19191B" stroke="#D6302F" stroke-width="2"/>
<rect x="-138.77" y="915.643" width="252.854" height="494.295" stroke="#D6302F" stroke-width="2"/>
<rect x="-111.942" y="47.7975" width="132.134" height="24.8267" rx="3" stroke="#D6302F" stroke-width="2"/>
<rect x="-111.942" y="90.7202" width="199.201" height="19.4614" rx="3" stroke="#D6302F" stroke-width="2"/>
<path d="M-112.942 143.374H88.2582" stroke="#D6302F" stroke-width="2"/>
<path d="M-112.942 143.374H88.2582" stroke="#D6302F" stroke-width="2"/>
<path d="M-138.428 -212.081L113.744 18.6294" stroke="#D6302F" stroke-width="2"/>
<path d="M113.743 -212.081L-138.428 18.6294" stroke="#D6302F" stroke-width="2"/>
<path d="M-112.942 170.2H88.2582" stroke="#D6302F" stroke-width="2"/>
<path d="M-112.942 197.027H52.0421" stroke="#D6302F" stroke-width="2"/>
<rect x="-111.942" y="230.219" width="199.201" height="24.8267" rx="3" fill="#D6302F" fill-opacity="0.5" stroke="#D6302F" stroke-width="2"/>
<rect x="-138.77" y="-212.422" width="252.854" height="494.295" stroke="#D6302F" stroke-width="2"/>
<rect x="-138.77" y="18.2881" width="252.854" height="263.585" stroke="#D6302F" stroke-width="2"/>
<rect x="706.273" y="611.159" width="132.134" height="24.8267" rx="3" stroke="#D6302F" stroke-width="2"/>
<rect x="706.273" y="654.082" width="199.201" height="19.4614" rx="3" stroke="#D6302F" stroke-width="2"/>
<path d="M705.273 706.735H906.474" stroke="#D6302F" stroke-width="2"/>
<path d="M705.273 706.735H906.474" stroke="#D6302F" stroke-width="2"/>
<path d="M679.788 351.281L931.96 581.991" stroke="#D6302F" stroke-width="2"/>
<path d="M931.959 351.281L679.788 581.991" stroke="#D6302F" stroke-width="2"/>
<path d="M705.273 733.562H906.474" stroke="#D6302F" stroke-width="2"/>
<path d="M705.273 760.389H870.258" stroke="#D6302F" stroke-width="2"/>
<circle cx="893.06" cy="400.91" r="12.4134" fill="#19191B" stroke="#D6302F" stroke-width="2"/>
<rect x="706.273" y="793.581" width="199.201" height="24.8267" rx="3" fill="#D6302F" fill-opacity="0.5" stroke="#D6302F" stroke-width="2"/>
<rect x="679.446" y="350.94" width="252.854" height="494.295" stroke="#D6302F" stroke-width="2"/>
<rect x="679.446" y="581.65" width="252.854" height="263.585" stroke="#D6302F" stroke-width="2"/>
<rect x="706.273" y="388.497" width="24.8267" height="24.8267" rx="3" fill="#19191B" stroke="#D6302F" stroke-width="2"/>
</g>
<defs>
<clipPath id="clip0_3051_6769">
<rect width="1600" height="960" fill="white"/>
</clipPath>
</defs>
</svg>
